<svg width="108" height="108" viewBox="0 0 108 108" fill="none" xmlns="http://www.w3.org/2000/svg">
<g clip-path="url(#clip0_3382_3520)">
<path d="M107.48 47.2588C107.158 46.089 106.648 45.0667 105.976 44.1631C105.236 43.1675 103.701 43.3841 102.841 44.2785C101.741 45.3471 101.826 47.1568 102.455 48.5561C102.494 48.6429 102.532 48.7308 102.568 48.8199C103.251 50.8068 102.705 52.9356 101.204 54.3548L92.2209 63.4969C89.9794 65.778 88.9641 68.9936 89.4895 72.1483L91.6547 85.1511C92.0639 87.2799 91.2454 89.2667 89.6084 90.544C87.9713 91.8213 85.925 91.9632 84.1515 90.9697L65.0524 80.6097C61.6419 78.7647 57.8221 77.7713 54.0022 77.7713C50.1824 77.7713 46.4991 78.7647 42.9521 80.6097L39.2957 82.5659C38.5904 82.9432 38.1001 83.6263 37.9682 84.4153C37.612 86.546 39.8755 88.1448 41.7645 87.0967L45.2712 85.1511C50.7281 82.1708 57.1399 82.1708 62.5968 85.1511L82.2416 95.9369C83.6058 96.6465 85.1064 96.9303 86.4707 96.9303C88.6534 96.9303 90.6997 96.2207 92.4732 94.8015C95.6109 92.3889 97.248 88.4152 96.5659 84.2996L94.9201 74.1223C94.4111 70.9746 95.4337 67.7728 97.6732 65.5029L104.751 58.3285C107.752 55.4901 108.707 51.2325 107.48 47.2588Z" fill="#9A7EF6"/>
<path d="M99.7035 40.021C102.295 37.1827 103.114 33.2089 101.886 29.5191C100.658 25.5453 97.5207 22.8489 93.5645 22.1393L84.0889 20.6789C80.8017 20.1723 77.9815 18.0645 76.5647 15.0554L72.2827 5.96057C70.5092 2.27069 66.9622 0 63.006 0C61.9455 0 60.8849 0.175033 59.8945 0.500801C58.5826 0.932294 58.2233 2.49356 58.9133 3.68988C59.5576 5.03037 61.275 5.34563 62.7597 5.25822C62.841 5.25344 62.9231 5.25098 63.006 5.25098C65.0523 5.25098 66.8258 6.38634 67.6443 8.23128L73.1268 19.738C74.5603 22.7467 77.3986 24.8436 80.6958 25.3297L92.7459 27.1064C94.7923 27.3903 96.2929 28.8095 96.975 30.7963C97.6571 32.7832 97.1114 34.912 95.6108 36.3311L80.1952 51.9422C74.6019 57.6189 72.0098 65.7083 73.3741 73.7976L74.1186 78.1129C74.2515 78.8832 74.7293 79.5506 75.4157 79.9246C77.2941 80.9482 79.5245 79.3519 79.1616 77.2437L78.4216 72.9461C77.3303 66.7017 79.3766 60.3154 83.7421 55.774L99.7035 40.021Z" fill="#FF6862"/>
<path d="M77.8745 36.7568C71.8719 35.9053 66.5515 31.9316 63.823 26.2549L54.0006 5.67667C52.2272 2.27063 48.8166 0.141846 44.9968 0.141846C41.0406 0.141846 37.4936 2.41255 35.7201 6.10243L31.4602 15.1501C30.0312 18.1852 27.1756 20.3016 23.856 20.7857L14.5747 22.1392C10.6185 22.7069 7.48079 25.5453 6.25299 29.519C5.93521 30.6761 5.75622 31.8331 5.74298 32.9622C5.72835 34.2096 7.07011 34.9831 8.29932 34.77C9.75356 34.543 10.679 33.058 10.9208 31.6061C10.9499 31.4311 10.9856 31.2556 11.0278 31.0801C11.7099 29.0932 13.2105 27.6741 15.2568 27.3902L27.307 25.6135C30.6042 25.1273 33.4425 23.0305 34.876 20.0217L40.3585 8.51504C41.3134 6.6701 42.9505 5.53476 44.9968 5.53476C47.0431 5.53476 48.8166 6.6701 49.6351 8.51504L59.1847 28.6675C62.5952 35.9053 69.2799 41.0144 77.0559 42.1497L81.0041 42.7816C81.8655 42.9195 82.7405 42.6336 83.3544 42.0138C84.8955 40.4577 84.0461 37.8109 81.8873 37.4422L77.8745 36.7568Z" fill="#FEAC4C"/>
<path d="M79.3759 100.336C78.0565 99.65 76.482 100.321 75.42 101.362C75.3324 101.448 75.2414 101.532 75.1468 101.614C73.5097 102.891 71.4634 103.033 69.6899 102.039L58.9403 96.1537C55.9482 94.5154 52.3274 94.5154 49.3353 96.1537L38.5858 102.039C36.8123 103.033 34.7659 102.891 33.1289 101.614C31.4918 100.336 30.6733 98.3494 31.0825 96.2207L34.7659 74.0814C36.1302 66.1339 33.5381 57.9027 27.9448 52.2259L25.0585 49.2233C24.4736 48.6148 23.6282 48.3308 22.7946 48.4628C20.723 48.7908 19.8872 51.322 21.3562 52.8191L24.5343 56.0577C28.8998 60.4572 30.9461 66.8435 29.8547 73.2299L26.1714 95.3691L26.0349 95.9368C25.6257 99.7686 27.1263 103.6 30.264 105.871C33.4017 108.284 37.6308 108.568 41.1778 106.723L49.4373 102.158C52.4474 100.494 56.1012 100.494 59.1113 102.158L67.3708 106.723C68.8714 107.574 70.5085 108 72.1455 108C74.3283 108 76.3746 107.29 78.1481 105.871C79.0885 105.219 79.8488 104.379 80.4549 103.46C81.1753 102.368 80.4861 101.029 79.3759 100.336Z" fill="#3481E5"/>
<path d="M50.7174 22.0315C49.7781 20.1704 47.1088 20.2048 46.2178 22.0895L44.3156 26.1131C41.5872 31.7898 36.4032 35.7635 30.2642 36.6151L8.30025 39.8792C4.61686 40.5888 1.75201 43.2852 0.52421 47.117C-0.703586 51.0907 0.251379 55.2064 3.11624 58.1867L10.1943 65.3611C12.4337 67.631 13.4563 70.8328 12.9473 73.9805L11.3015 84.1578C10.6194 88.2734 12.2565 92.2471 15.3942 94.6597C16.2989 95.2872 17.2453 95.7846 18.2103 96.128C19.4445 96.5673 20.6438 95.5275 20.8511 94.234C21.067 92.7366 19.842 91.3328 18.5679 90.5171C18.5092 90.4795 18.4517 90.4412 18.3955 90.4022C16.7584 89.1249 15.9399 87.138 16.3492 85.0093L18.5144 72.0065C19.0397 68.8518 18.0244 65.6362 15.7829 63.3551L6.79962 54.2129C5.29898 52.7938 4.88972 50.665 5.4354 48.6781C6.11751 46.6913 7.61814 45.2721 9.66447 44.9882L30.9463 41.7241C38.7223 40.5888 45.2706 35.4797 48.8176 28.2419L50.7388 24.2446C51.0757 23.5436 51.0678 22.7259 50.7174 22.0315Z" fill="#50BBA9"/>
</g>
<defs>
<clipPath id="clip0_3382_3520">
<rect width="108" height="108" fill="white"/>
</clipPath>
</defs>
</svg>
